<svg xmlns="http://www.w3.org/2000/svg" viewBox="0 0 3000 3000" width="3000" height="3000">
  <rect width="3000" height="3000" fill="#0a0a0a"/>
  <text x="1500" y="800" font-family="Arial Black" font-size="120" fill="white" text-anchor="middle" font-weight="900">NEW YORK</text>
  <text x="1500" y="950" font-family="Arial" font-size="60" fill="#888" text-anchor="middle" letter-spacing="20">CITY</text>
  <rect x="200" y="1400" width="80" height="600" fill="white" opacity="0.9"/>
  <rect x="300" y="1200" width="60" height="800" fill="white"/>
  <rect x="380" y="1300" width="100" height="700" fill="white" opacity="0.8"/>
  <rect x="500" y="1100" width="120" height="900" fill="white"/>
  <rect x="640" y="1350" width="80" height="650" fill="white" opacity="0.9"/>
  <rect x="740" y="1250" width="140" height="750" fill="white"/>
  <rect x="900" y="1050" width="100" height="950" fill="white"/>
  <rect x="1020" y="1300" width="80" height="700" fill="white" opacity="0.85"/>
  <rect x="1120" y="1150" width="160" height="850" fill="white"/>
  <rect x="1300" y="900" width="120" height="1100" fill="white"/>
  <rect x="1440" y="1200" width="80" height="800" fill="white" opacity="0.9"/>
  <rect x="1540" y="1000" width="180" height="1000" fill="white"/>
  <rect x="1740" y="1300" width="100" height="700" fill="white" opacity="0.8"/>
  <rect x="1860" y="1100" width="140" height="900" fill="white"/>
  <rect x="2020" y="1200" width="80" height="800" fill="white" opacity="0.9"/>
  <rect x="2120" y="1050" width="120" height="950" fill="white"/>
  <rect x="2260" y="1350" width="100" height="650" fill="white" opacity="0.85"/>
  <rect x="2380" y="1250" width="80" height="750" fill="white"/>
  <rect x="2480" y="1400" width="120" height="600" fill="white" opacity="0.8"/>
  <rect x="2620" y="1300" width="80" height="700" fill="white" opacity="0.9"/>
  <rect x="200" y="2000" width="2620" height="20" fill="#333"/>
  <text x="1500" y="2200" font-family="Arial" font-size="50" fill="#555" text-anchor="middle" letter-spacing="8">NY SPOTLIGHT REPORT</text>
</svg>